<svg width="15" height="15" viewBox="0 0 15 15" fill="none" xmlns="http://www.w3.org/2000/svg">
<path d="M13.5938 7.5C13.5937 9.11616 12.9517 10.6661 11.8089 11.8089C10.6661 12.9517 9.11616 13.5938 7.5 13.5938C5.88384 13.5938 4.33387 12.9517 3.19107 11.8089C2.04827 10.6661 1.40625 9.11616 1.40625 7.5C1.40625 5.88384 2.04827 4.33387 3.19107 3.19107C4.33387 2.04827 5.88384 1.40625 7.5 1.40625C9.11616 1.40625 10.6661 2.04827 11.8089 3.19107C12.9517 4.33387 13.5937 5.88384 13.5938 7.5ZM0 7.5C0 9.48912 0.790176 11.3968 2.1967 12.8033C3.60322 14.2098 5.51088 15 7.5 15C9.48912 15 11.3968 14.2098 12.8033 12.8033C14.2098 11.3968 15 9.48912 15 7.5C15 5.51088 14.2098 3.60322 12.8033 2.1967C11.3968 0.790176 9.48912 0 7.5 0C5.51088 0 3.60322 0.790176 2.1967 2.1967C0.790176 3.60322 0 5.51088 0 7.5ZM6.79688 3.51562V7.5C6.79688 7.73438 6.91406 7.9541 7.11035 8.08594L9.92285 9.96094C10.2451 10.1777 10.6816 10.0898 10.8984 9.76465C11.1152 9.43945 11.0273 9.00586 10.7021 8.78906L8.20312 7.125V3.51562C8.20312 3.12598 7.88965 2.8125 7.5 2.8125C7.11035 2.8125 6.79688 3.12598 6.79688 3.51562Z" fill="#114A55"/>
</svg>
