<svg width="24" height="24" viewBox="0 0 24 24" fill="none" xmlns="http://www.w3.org/2000/svg">
<rect width="24" height="24" rx="12" fill="#114A55"/>
<path d="M9.33301 5V7" stroke="white" stroke-miterlimit="10" stroke-linecap="round" stroke-linejoin="round"/>
<path d="M14.667 5V7" stroke="white" stroke-miterlimit="10" stroke-linecap="round" stroke-linejoin="round"/>
<path d="M6.33301 9.72656H17.6663" stroke="white" stroke-miterlimit="10" stroke-linecap="round" stroke-linejoin="round"/>
<path d="M18 9.33333V15C18 17 17 18.3333 14.6667 18.3333H9.33333C7 18.3333 6 17 6 15V9.33333C6 7.33333 7 6 9.33333 6H14.6667C17 6 18 7.33333 18 9.33333Z" stroke="white" stroke-miterlimit="10" stroke-linecap="round" stroke-linejoin="round"/>
<path d="M14.4629 12.7998H14.4672" stroke="white" stroke-linecap="round" stroke-linejoin="round"/>
<path d="M14.4629 14.7998H14.4672" stroke="white" stroke-linecap="round" stroke-linejoin="round"/>
<path d="M11.9971 12.7998H12.0014" stroke="white" stroke-linecap="round" stroke-linejoin="round"/>
<path d="M11.9971 14.7998H12.0014" stroke="white" stroke-linecap="round" stroke-linejoin="round"/>
<path d="M9.5293 12.7998H9.53361" stroke="white" stroke-linecap="round" stroke-linejoin="round"/>
<path d="M9.5293 14.7998H9.53361" stroke="white" stroke-linecap="round" stroke-linejoin="round"/>
</svg>
