<svg width="15" height="15" viewBox="0 0 15 15" fill="none" xmlns="http://www.w3.org/2000/svg">
<path d="M10.7578 12.085L2.91504 4.24219C2.25879 5.15918 1.875 6.28418 1.875 7.5C1.875 10.6055 4.39453 13.125 7.5 13.125C8.71582 13.125 9.84082 12.7412 10.7578 12.085ZM12.085 10.7578C12.7412 9.84082 13.125 8.71582 13.125 7.5C13.125 4.39453 10.6055 1.875 7.5 1.875C6.28418 1.875 5.15918 2.25879 4.24219 2.91504L12.085 10.7578ZM0 7.5C0 5.51088 0.790176 3.60322 2.1967 2.1967C3.60322 0.790176 5.51088 0 7.5 0C9.48912 0 11.3968 0.790176 12.8033 2.1967C14.2098 3.60322 15 5.51088 15 7.5C15 9.48912 14.2098 11.3968 12.8033 12.8033C11.3968 14.2098 9.48912 15 7.5 15C5.51088 15 3.60322 14.2098 2.1967 12.8033C0.790176 11.3968 0 9.48912 0 7.5Z" fill="#114A55"/>
</svg>
