<svg width="15" height="12" viewBox="0 0 15 12" fill="none" xmlns="http://www.w3.org/2000/svg">
<path d="M1.40625 0C0.629883 0 0 0.629883 0 1.40625C0 1.84863 0.208008 2.26465 0.5625 2.53125L6.9375 7.3125C7.27148 7.56152 7.72852 7.56152 8.0625 7.3125L14.4375 2.53125C14.792 2.26465 15 1.84863 15 1.40625C15 0.629883 14.3701 0 13.5938 0H1.40625ZM0 3.28125V9.375C0 10.4092 0.84082 11.25 1.875 11.25H13.125C14.1592 11.25 15 10.4092 15 9.375V3.28125L8.625 8.0625C7.95703 8.56348 7.04297 8.56348 6.375 8.0625L0 3.28125Z" fill="#565656"/>
</svg>
