<svg width="24" height="24" viewBox="0 0 24 24" fill="none" xmlns="http://www.w3.org/2000/svg">
<path d="M12 0C9.62663 0 7.30655 0.703788 5.33316 2.02236C3.35977 3.34094 1.8217 5.21508 0.913451 7.4078C0.00519941 9.60051 -0.232441 12.0133 0.230582 14.3411C0.693605 16.6689 1.83649 18.807 3.51472 20.4853C5.19295 22.1635 7.33115 23.3064 9.65892 23.7694C11.9867 24.2324 14.3995 23.9948 16.5922 23.0865C18.7849 22.1783 20.6591 20.6402 21.9776 18.6668C23.2962 16.6934 24 14.3734 24 12C24 10.4241 23.6896 8.8637 23.0866 7.4078C22.4835 5.95189 21.5996 4.62902 20.4853 3.51472C19.371 2.40042 18.0481 1.5165 16.5922 0.913445C15.1363 0.310389 13.5759 0 12 0ZM12 21.6C10.1013 21.6 8.24524 21.037 6.66653 19.9821C5.08782 18.9272 3.85736 17.4279 3.13076 15.6738C2.40416 13.9196 2.21405 11.9893 2.58447 10.1271C2.95488 8.26491 3.8692 6.55436 5.21178 5.21177C6.55436 3.86919 8.26492 2.95488 10.1271 2.58446C11.9894 2.21404 13.9196 2.40415 15.6738 3.13076C17.4279 3.85736 18.9272 5.08781 19.9821 6.66652C21.037 8.24524 21.6 10.1013 21.6 12C21.6 14.5461 20.5886 16.9879 18.7882 18.7882C16.9879 20.5886 14.5461 21.6 12 21.6Z" fill="#114A55"/>
<path d="M16.7998 10.8H13.1998V7.2C13.1998 6.88174 13.0734 6.57652 12.8483 6.35147C12.6233 6.12643 12.3181 6 11.9998 6C11.6815 6 11.3763 6.12643 11.1513 6.35147C10.9262 6.57652 10.7998 6.88174 10.7998 7.2V12C10.7998 12.3183 10.9262 12.6235 11.1513 12.8485C11.3763 13.0736 11.6815 13.2 11.9998 13.2H16.7998C17.1181 13.2 17.4233 13.0736 17.6483 12.8485C17.8734 12.6235 17.9998 12.3183 17.9998 12C17.9998 11.6817 17.8734 11.3765 17.6483 11.1515C17.4233 10.9264 17.1181 10.8 16.7998 10.8Z" fill="#114A55"/>
</svg>
