<svg width="24" height="24" viewBox="0 0 24 24" fill="none" xmlns="http://www.w3.org/2000/svg">
<rect width="24" height="24" rx="12" fill="#114A55"/>
<path d="M12 6C10.8133 6 9.65328 6.35189 8.66658 7.01118C7.67989 7.67047 6.91085 8.60754 6.45673 9.7039C6.0026 10.8003 5.88378 12.0067 6.11529 13.1705C6.3468 14.3344 6.91825 15.4035 7.75736 16.2426C8.59648 17.0818 9.66557 17.6532 10.8295 17.8847C11.9933 18.1162 13.1997 17.9974 14.2961 17.5433C15.3925 17.0891 16.3295 16.3201 16.9888 15.3334C17.6481 14.3467 18 13.1867 18 12C18 11.2121 17.8448 10.4319 17.5433 9.7039C17.2417 8.97594 16.7998 8.31451 16.2426 7.75736C15.6855 7.20021 15.0241 6.75825 14.2961 6.45672C13.5681 6.15519 12.7879 6 12 6ZM12 16.8C11.0507 16.8 10.1226 16.5185 9.33326 15.9911C8.54391 15.4636 7.92868 14.714 7.56538 13.8369C7.20208 12.9598 7.10702 11.9947 7.29223 11.0636C7.47744 10.1325 7.9346 9.27718 8.60589 8.60589C9.27718 7.93459 10.1325 7.47744 11.0636 7.29223C11.9947 7.10702 12.9598 7.20208 13.8369 7.56538C14.714 7.92868 15.4636 8.54391 15.9911 9.33326C16.5185 10.1226 16.8 11.0506 16.8 12C16.8 13.273 16.2943 14.4939 15.3941 15.3941C14.4939 16.2943 13.273 16.8 12 16.8Z" fill="white"/>
<path d="M14.3994 11.4H12.5994V9.6C12.5994 9.44087 12.5362 9.28826 12.4237 9.17574C12.3112 9.06321 12.1585 9 11.9994 9C11.8403 9 11.6877 9.06321 11.5752 9.17574C11.4626 9.28826 11.3994 9.44087 11.3994 9.6V12C11.3994 12.1591 11.4626 12.3117 11.5752 12.4243C11.6877 12.5368 11.8403 12.6 11.9994 12.6H14.3994C14.5585 12.6 14.7112 12.5368 14.8237 12.4243C14.9362 12.3117 14.9994 12.1591 14.9994 12C14.9994 11.8409 14.9362 11.6883 14.8237 11.5757C14.7112 11.4632 14.5585 11.4 14.3994 11.4Z" fill="white"/>
</svg>
