<svg width="15" height="11" viewBox="0 0 15 11" fill="none" xmlns="http://www.w3.org/2000/svg">
<path d="M0.751113 0C0.336302 0 0.00117178 0.33513 0.00117178 0.749941C0.00117178 1.16475 0.336302 1.49988 0.751113 1.49988H14.2501C14.6649 1.49988 15 1.16475 15 0.749941C15 0.33513 14.6649 0 14.2501 0H0.751113ZM0.751113 8.9993C0.336302 8.9993 0.00117178 9.33443 0.00117178 9.74924C0.00117178 10.1641 0.336302 10.4992 0.751113 10.4992H14.2501C14.6649 10.4992 15 10.1641 15 9.74924C15 9.33443 14.6649 8.9993 14.2501 8.9993H0.751113ZM0.165221 3.16382C-0.0550738 3.38411 -0.0550738 3.74033 0.165221 3.95828L1.45418 5.24725L0.165221 6.53855C-0.0550738 6.75885 -0.0550738 7.11507 0.165221 7.33302C0.385517 7.55097 0.741739 7.55332 0.959691 7.33302L2.24865 6.04406L3.53761 7.33302C3.75791 7.55332 4.11413 7.55332 4.33208 7.33302C4.55004 7.11273 4.55238 6.7565 4.33208 6.53855L3.04312 5.24959L4.33208 3.96063C4.55238 3.74033 4.55238 3.38411 4.33208 3.16616C4.11179 2.94821 3.75557 2.94586 3.53761 3.16616L2.24865 4.45512L0.962034 3.16382C0.741739 2.94352 0.385517 2.94352 0.167565 3.16382H0.165221ZM6.21162 3.16382C5.99133 2.94352 5.63511 2.94352 5.41716 3.16382C5.1992 3.38411 5.19686 3.74033 5.41716 3.95828L6.70612 5.24725L5.41716 6.53621C5.19686 6.7565 5.19686 7.11273 5.41716 7.33068C5.63745 7.54863 5.99367 7.55097 6.21162 7.33068L7.50059 6.04172L8.78955 7.33068C9.00984 7.55097 9.36607 7.55097 9.58402 7.33068C9.80197 7.11038 9.80431 6.75416 9.58402 6.53621L8.29505 5.24725L9.58402 3.95828C9.80431 3.73799 9.80431 3.38177 9.58402 3.16382C9.36372 2.94586 9.0075 2.94352 8.78955 3.16382L7.50059 4.45278L6.21162 3.16382ZM10.6644 3.16382C10.4441 3.38411 10.4441 3.74033 10.6644 3.95828L11.9534 5.24725L10.6644 6.53621C10.4441 6.7565 10.4441 7.11273 10.6644 7.33068C10.8847 7.54863 11.2409 7.55097 11.4589 7.33068L12.7478 6.04172L14.0368 7.33068C14.2571 7.55097 14.6133 7.55097 14.8313 7.33068C15.0492 7.11038 15.0516 6.75416 14.8313 6.53621L13.5423 5.24725L14.8313 3.95828C15.0516 3.73799 15.0516 3.38177 14.8313 3.16382C14.611 2.94586 14.2547 2.94352 14.0368 3.16382L12.7478 4.45278L11.4589 3.16382C11.2386 2.94352 10.8824 2.94352 10.6644 3.16382Z" fill="#565656"/>
</svg>
