<svg id="Layer_1" data-name="Layer 1" xmlns="http://www.w3.org/2000/svg" viewBox="0 0 100 100"><defs><style>.cls-1{fill:#134a55;}.cls-2{fill:#fff;}</style></defs><title>deslogarsvg</title><circle class="cls-1" cx="50" cy="50" r="50"/><path class="cls-2" d="M62.38,35.39l12,12a3.78,3.78,0,0,1,0,5.33l-12,12a3.27,3.27,0,0,1-2.34,1,3.31,3.31,0,0,1-3.31-3.31V56.3H44.23a3.12,3.12,0,0,1-3.13-3.12V46.93a3.13,3.13,0,0,1,3.13-3.13h12.5V37.74a3.32,3.32,0,0,1,5.65-2.35Zm-21.28-1H34.85a3.12,3.12,0,0,0-3.12,3.12v25a3.13,3.13,0,0,0,3.12,3.13H41.1a3.13,3.13,0,1,1,0,6.25H34.85a9.38,9.38,0,0,1-9.37-9.38v-25a9.38,9.38,0,0,1,9.37-9.37H41.1a3.13,3.13,0,1,1,0,6.25Z"/></svg>