<svg width="24" height="24" viewBox="0 0 24 24" fill="none" xmlns="http://www.w3.org/2000/svg">
<rect width="24" height="24" rx="12" fill="#114A55"/>
<path d="M9 7.2C9 6.88174 9.12643 6.57652 9.35147 6.35147C9.57652 6.12643 9.88174 6 10.2 6H13.8C14.1183 6 14.4235 6.12643 14.6485 6.35147C14.8736 6.57652 15 6.88174 15 7.2V8.4H17.4C17.5591 8.4 17.7117 8.46321 17.8243 8.57574C17.9368 8.68826 18 8.84087 18 9C18 9.15913 17.9368 9.31174 17.8243 9.42426C17.7117 9.53679 17.5591 9.6 17.4 9.6H16.7586L16.2384 16.8852C16.2169 17.188 16.0814 17.4713 15.8593 17.6781C15.6372 17.885 15.3449 18 15.0414 18H8.958C8.65448 18 8.36224 17.885 8.14013 17.6781C7.91802 17.4713 7.78255 17.188 7.761 16.8852L7.242 9.6H6.6C6.44087 9.6 6.28826 9.53679 6.17574 9.42426C6.06321 9.31174 6 9.15913 6 9C6 8.84087 6.06321 8.68826 6.17574 8.57574C6.28826 8.46321 6.44087 8.4 6.6 8.4H9V7.2ZM10.2 8.4H13.8V7.2H10.2V8.4ZM8.4444 9.6L8.9586 16.8H15.042L15.5562 9.6H8.4444ZM10.8 10.8C10.9591 10.8 11.1117 10.8632 11.2243 10.9757C11.3368 11.0883 11.4 11.2409 11.4 11.4V15C11.4 15.1591 11.3368 15.3117 11.2243 15.4243C11.1117 15.5368 10.9591 15.6 10.8 15.6C10.6409 15.6 10.4883 15.5368 10.3757 15.4243C10.2632 15.3117 10.2 15.1591 10.2 15V11.4C10.2 11.2409 10.2632 11.0883 10.3757 10.9757C10.4883 10.8632 10.6409 10.8 10.8 10.8ZM13.2 10.8C13.3591 10.8 13.5117 10.8632 13.6243 10.9757C13.7368 11.0883 13.8 11.2409 13.8 11.4V15C13.8 15.1591 13.7368 15.3117 13.6243 15.4243C13.5117 15.5368 13.3591 15.6 13.2 15.6C13.0409 15.6 12.8883 15.5368 12.7757 15.4243C12.6632 15.3117 12.6 15.1591 12.6 15V11.4C12.6 11.2409 12.6632 11.0883 12.7757 10.9757C12.8883 10.8632 13.0409 10.8 13.2 10.8Z" fill="white"/>
</svg>
