<svg width="40" height="40" viewBox="0 0 40 40" fill="none" xmlns="http://www.w3.org/2000/svg">
<rect width="40" height="40" rx="20" fill="#114A55"/>
<path d="M26.2508 18.1238C26.2508 19.9165 25.6687 21.5725 24.6882 22.9161L29.6338 27.8646C30.1221 28.3528 30.1221 29.1456 29.6338 29.6338C29.1455 30.1221 28.3525 30.1221 27.8642 29.6338L22.9186 24.6853C21.5748 25.6696 19.9185 26.2476 18.1254 26.2476C13.6369 26.2476 10 22.6114 10 18.1238C10 13.6362 13.6369 10 18.1254 10C22.6139 10 26.2508 13.6362 26.2508 18.1238ZM18.1254 23.748C18.8641 23.748 19.5956 23.6025 20.2781 23.3199C20.9606 23.0372 21.5807 22.623 22.1031 22.1007C22.6254 21.5784 23.0398 20.9584 23.3225 20.2761C23.6052 19.5937 23.7507 18.8624 23.7507 18.1238C23.7507 17.3852 23.6052 16.6539 23.3225 15.9715C23.0398 15.2892 22.6254 14.6692 22.1031 14.1469C21.5807 13.6247 20.9606 13.2104 20.2781 12.9277C19.5956 12.6451 18.8641 12.4996 18.1254 12.4996C17.3867 12.4996 16.6552 12.6451 15.9727 12.9277C15.2902 13.2104 14.6701 13.6247 14.1477 14.1469C13.6254 14.6692 13.211 15.2892 12.9283 15.9715C12.6456 16.6539 12.5001 17.3852 12.5001 18.1238C12.5001 18.8624 12.6456 19.5937 12.9283 20.2761C13.211 20.9584 13.6254 21.5784 14.1477 22.1007C14.6701 22.623 15.2902 23.0372 15.9727 23.3199C16.6552 23.6025 17.3867 23.748 18.1254 23.748Z" fill="white"/>
</svg>
