<svg width="40" height="40" viewBox="0 0 40 40" fill="none" xmlns="http://www.w3.org/2000/svg">
<rect width="40" height="40" rx="20" fill="#114A55"/>
<path d="M10 13.0956C10 12.3054 10.6384 11.667 11.4286 11.667H28.5714C29.3616 11.667 30 12.3054 30 13.0956C30 13.8857 29.3616 14.5241 28.5714 14.5241H11.4286C10.6384 14.5241 10 13.8857 10 13.0956ZM10 20.2384C10 19.4482 10.6384 18.8098 11.4286 18.8098H28.5714C29.3616 18.8098 30 19.4482 30 20.2384C30 21.0286 29.3616 21.667 28.5714 21.667H11.4286C10.6384 21.667 10 21.0286 10 20.2384ZM30 27.3813C30 28.1715 29.3616 28.8098 28.5714 28.8098H11.4286C10.6384 28.8098 10 28.1715 10 27.3813C10 26.5911 10.6384 25.9527 11.4286 25.9527H28.5714C29.3616 25.9527 30 26.5911 30 27.3813Z" fill="white"/>
</svg>
