<svg id="Layer_1" data-name="Layer 1" xmlns="http://www.w3.org/2000/svg" viewBox="0 0 100 100"><defs><style>.cls-1{fill:#134a55;}.cls-2{fill:#fff;}</style></defs><title>menu</title><circle class="cls-1" cx="50" cy="50" r="50"/><path class="cls-2" d="M25,32.14a3.57,3.57,0,0,1,3.57-3.57H71.43a3.57,3.57,0,0,1,0,7.14H28.57A3.57,3.57,0,0,1,25,32.14ZM25,50a3.57,3.57,0,0,1,3.57-3.57H71.43a3.57,3.57,0,0,1,0,7.14H28.57A3.57,3.57,0,0,1,25,50ZM75,67.86a3.57,3.57,0,0,1-3.57,3.57H28.57a3.57,3.57,0,0,1,0-7.14H71.43A3.57,3.57,0,0,1,75,67.86Z"/></svg>