<svg width="15" height="11" viewBox="0 0 15 11" fill="none" xmlns="http://www.w3.org/2000/svg">
<path d="M4.5 2.25C4.5 1.83516 4.83516 1.5 5.25 1.5C5.66484 1.5 6 1.83516 6 2.25V2.43281C6 3.08203 5.94375 3.72891 5.83359 4.36641L3.85547 4.95938C2.90391 5.24531 2.25234 6.12188 2.25234 7.11563V8.80078C2.25234 9.73828 3.01406 10.5 3.95156 10.5C4.56094 10.5 5.12344 10.1742 5.42578 9.64453L5.75156 9.075C6.37969 7.97344 6.84141 6.78516 7.12031 5.54766L9.33281 4.88437L9.03984 5.76328C8.9625 5.99297 9.00234 6.24375 9.14297 6.43828C9.28359 6.63281 9.51094 6.75 9.75234 6.75H12.75C13.1648 6.75 13.5 6.41484 13.5 6C13.5 5.58516 13.1648 5.25 12.75 5.25H10.7906L11.2125 3.98672C11.3016 3.72188 11.2336 3.42891 11.0391 3.22734C10.8445 3.02578 10.5539 2.95078 10.2844 3.03047L7.41562 3.89297C7.47187 3.40781 7.5 2.92266 7.5 2.43281V2.25C7.5 1.00781 6.49219 0 5.25 0C4.00781 0 3 1.00781 3 2.25V3C3 3.41484 3.33516 3.75 3.75 3.75C4.16484 3.75 4.5 3.41484 4.5 3V2.25ZM4.28438 6.39844L5.43281 6.05391C5.18906 6.84609 4.85859 7.61016 4.44609 8.33203L4.12031 8.90156C4.08516 8.9625 4.01953 9.00234 3.94687 9.00234C3.83672 9.00234 3.74766 8.91328 3.74766 8.80313V7.11563C3.74766 6.78516 3.96562 6.49219 4.28203 6.39609L4.28438 6.39844ZM0.5625 7.875C0.250781 7.875 0 8.12578 0 8.4375C0 8.74922 0.250781 9 0.5625 9H1.50703C1.50234 8.93437 1.5 8.86875 1.5 8.80078V7.875H0.5625ZM14.4375 9C14.7492 9 15 8.74922 15 8.4375C15 8.12578 14.7492 7.875 14.4375 7.875H7.16953C7.0125 8.25703 6.83672 8.63203 6.64688 9H14.4375Z" fill="#565656"/>
</svg>
