<svg width="24" height="24" viewBox="0 0 24 24" fill="none" xmlns="http://www.w3.org/2000/svg">
<rect width="24" height="24" rx="12" fill="#114A55"/>
<path d="M12.9231 6.92308C12.9231 6.4125 12.5106 6 12 6C11.4894 6 11.0769 6.4125 11.0769 6.92308V11.0769H6.92308C6.4125 11.0769 6 11.4894 6 12C6 12.5106 6.4125 12.9231 6.92308 12.9231H11.0769V17.0769C11.0769 17.5875 11.4894 18 12 18C12.5106 18 12.9231 17.5875 12.9231 17.0769V12.9231H17.0769C17.5875 12.9231 18 12.5106 18 12C18 11.4894 17.5875 11.0769 17.0769 11.0769H12.9231V6.92308Z" fill="white"/>
</svg>
