<?xml version="1.0" encoding="utf-8"?>
<!-- Generator: Adobe Illustrator 23.0.6, SVG Export Plug-In . SVG Version: 6.00 Build 0)  -->
<svg version="1.1" id="Layer_1" xmlns="http://www.w3.org/2000/svg" xmlns:xlink="http://www.w3.org/1999/xlink" x="0px" y="0px"
	 viewBox="0 0 512 512" style="enable-background:new 0 0 512 512;" xml:space="preserve">
<style type="text/css">
	.st0{fill:#114A55;}
</style>
<path class="st0" d="M65.7,198.8c0.1,0.2,0.4,0.3,0.7,0.1c0.1-0.1,0.2-0.2,0.2-0.3C111.9,50.9,300,8.4,404,124.7
	c9.4,10.5,11.5,25.1,0.9,35.5c-8.3,8.1-20.9,9.7-30.7,3.2c-1.6-1-4.8-4.2-9.7-9.4c-38.3-40.9-95.9-56.8-149.9-41.4
	c-48,13.7-87.1,51.9-101.1,100.1c-0.2,0.6,0,0.8,0.5,0.4c8.6-5.9,20.2-16.1,28.9-18.7c21.9-6.7,39.8,19.2,26.5,37.8
	c-1.5,2.1-4.3,4.6-8.3,7.5c-20.7,14.9-41.6,29.6-62.5,44.2c-9.3,6.5-19.8,8.2-29.5,1.6c-2.6-1.8-5.6-5.1-9-9.9
	c-14.3-20-28.5-40.1-42.6-60.2c-3.1-4.4-5-8.1-5.8-11c-5.5-20.8,17.9-38.4,36.5-26.9C54.8,181.7,60.9,191.7,65.7,198.8z"/>
<path class="st0" d="M398.1,298.8c-6.4,4.6-12.9,9.1-19.3,13.6c-4.1,2.8-7.5,4.6-10.2,5.3c-21.2,5.5-39.1-18.4-26.7-37
	c1.7-2.5,5-5.6,10-9.1c20.2-14.4,40.5-28.7,60.7-43c15.7-11.1,28.8-7.2,39.3,7.6c13.7,19.3,27.4,38.6,41.1,57.9
	c3.9,5.5,6.3,9.8,7.2,13c6.3,22.4-20.4,40.2-38.6,25.6c-5.5-4.4-10.8-13.3-15.2-19.6c-0.1-0.2-0.4-0.3-0.6-0.1
	c-0.1,0.1-0.1,0.1-0.2,0.2c-2.2,6.7-4.7,14-7.2,19.9c-29.9,70.5-97.7,117.4-173.8,120.8c-59.9,2.7-119.5-23-158.2-68.5
	c-20.9-24.6,13.4-56.5,36.5-32.6c2.1,2.2,4.3,4.4,6.4,6.6c78.6,81.9,217.3,48.3,249.2-60.4C398.7,298.5,398.6,298.4,398.1,298.8z"/>
</svg>
