<svg width="40" height="40" viewBox="0 0 40 40" fill="none" xmlns="http://www.w3.org/2000/svg">
<rect width="40" height="40" rx="20" fill="#114A55"/>
<path d="M24.7617 14.6662L29.5586 19.6499C29.8398 19.9422 30 20.3439 30 20.7579C30 21.1719 29.8398 21.5736 29.5586 21.8659L24.7617 26.8496C24.5117 27.1094 24.1758 27.2514 23.8242 27.2514C23.0938 27.2514 22.5 26.6345 22.5 25.8756V23.3553H17.5C16.8086 23.3553 16.25 22.7749 16.25 22.0566V19.4592C16.25 18.7409 16.8086 18.1605 17.5 18.1605H22.5V15.6402C22.5 14.8813 23.0938 14.2644 23.8242 14.2644C24.1758 14.2644 24.5117 14.4105 24.7617 14.6662ZM16.25 14.2644H13.75C13.0586 14.2644 12.5 14.8448 12.5 15.5631V25.9527C12.5 26.6711 13.0586 27.2514 13.75 27.2514H16.25C16.9414 27.2514 17.5 27.8318 17.5 28.5501C17.5 29.2685 16.9414 29.8488 16.25 29.8488H13.75C11.6797 29.8488 10 28.1037 10 25.9527V15.5631C10 13.4121 11.6797 11.667 13.75 11.667H16.25C16.9414 11.667 17.5 12.2473 17.5 12.9657C17.5 13.684 16.9414 14.2644 16.25 14.2644Z" fill="white"/>
</svg>
