<svg width="15" height="18" viewBox="0 0 15 18" fill="none" xmlns="http://www.w3.org/2000/svg">
<path d="M4.82143 4.85156V6.46875H10.1786V4.85156C10.1786 3.3624 8.97991 2.15625 7.5 2.15625C6.02009 2.15625 4.82143 3.3624 4.82143 4.85156ZM2.67857 6.46875V4.85156C2.67857 2.1731 4.83817 0 7.5 0C10.1618 0 12.3214 2.1731 12.3214 4.85156V6.46875H12.8571C14.0391 6.46875 15 7.43569 15 8.625V15.0938C15 16.2831 14.0391 17.25 12.8571 17.25H2.14286C0.960938 17.25 0 16.2831 0 15.0938V8.625C0 7.43569 0.960938 6.46875 2.14286 6.46875H2.67857Z" fill="#565656"/>
</svg>
