<svg width="15" height="15" viewBox="0 0 15 15" fill="none" xmlns="http://www.w3.org/2000/svg">
<path d="M8.50446 0.696429C8.3471 0.277902 7.94531 0 7.5 0C7.05469 0 6.6529 0.277902 6.49554 0.696429L1.93527 12.8571H1.07143C0.478795 12.8571 0 13.3359 0 13.9286C0 14.5212 0.478795 15 1.07143 15H4.28571C4.87835 15 5.35714 14.5212 5.35714 13.9286C5.35714 13.3359 4.87835 12.8571 4.28571 12.8571H4.22545L4.82812 11.25H10.1719L10.7746 12.8571H10.7143C10.1217 12.8571 9.64286 13.3359 9.64286 13.9286C9.64286 14.5212 10.1217 15 10.7143 15H13.9286C14.5212 15 15 14.5212 15 13.9286C15 13.3359 14.5212 12.8571 13.9286 12.8571H13.0647L8.50446 0.696429ZM9.3683 9.10714H5.6317L7.5 4.12165L9.3683 9.10714Z" fill="#565656"/>
</svg>
