<svg width="24" height="24" viewBox="0 0 24 24" fill="none" xmlns="http://www.w3.org/2000/svg">
<rect width="24" height="24" rx="12" fill="#114A55"/>
<path d="M6.58065 7C6.25887 7 6 7.25721 6 7.57692V8.73077C6 9.05048 6.25887 9.30769 6.58065 9.30769H7.74194C8.06371 9.30769 8.32258 9.05048 8.32258 8.73077V7.57692C8.32258 7.25721 8.06371 7 7.74194 7H6.58065ZM10.2581 7.38462C9.82984 7.38462 9.48387 7.72837 9.48387 8.15385C9.48387 8.57933 9.82984 8.92308 10.2581 8.92308H17.2258C17.654 8.92308 18 8.57933 18 8.15385C18 7.72837 17.654 7.38462 17.2258 7.38462H10.2581ZM10.2581 11.2308C9.82984 11.2308 9.48387 11.5745 9.48387 12C9.48387 12.4255 9.82984 12.7692 10.2581 12.7692H17.2258C17.654 12.7692 18 12.4255 18 12C18 11.5745 17.654 11.2308 17.2258 11.2308H10.2581ZM10.2581 15.0769C9.82984 15.0769 9.48387 15.4207 9.48387 15.8462C9.48387 16.2716 9.82984 16.6154 10.2581 16.6154H17.2258C17.654 16.6154 18 16.2716 18 15.8462C18 15.4207 17.654 15.0769 17.2258 15.0769H10.2581ZM6 11.4231V12.5769C6 12.8966 6.25887 13.1538 6.58065 13.1538H7.74194C8.06371 13.1538 8.32258 12.8966 8.32258 12.5769V11.4231C8.32258 11.1034 8.06371 10.8462 7.74194 10.8462H6.58065C6.25887 10.8462 6 11.1034 6 11.4231ZM6.58065 14.6923C6.25887 14.6923 6 14.9495 6 15.2692V16.4231C6 16.7428 6.25887 17 6.58065 17H7.74194C8.06371 17 8.32258 16.7428 8.32258 16.4231V15.2692C8.32258 14.9495 8.06371 14.6923 7.74194 14.6923H6.58065Z" fill="white"/>
</svg>
