<?xml version="1.0" encoding="utf-8"?>
<!-- Generator: Adobe Illustrator 23.0.6, SVG Export Plug-In . SVG Version: 6.00 Build 0)  -->
<svg version="1.1" id="Layer_1" xmlns="http://www.w3.org/2000/svg" xmlns:xlink="http://www.w3.org/1999/xlink" x="0px" y="0px"
	 viewBox="0 0 512 512" style="enable-background:new 0 0 512 512;" xml:space="preserve">
<style type="text/css">
	.st0{fill:none;stroke:#114A55;stroke-width:35;stroke-miterlimit:10;}
	.st1{fill:none;stroke:#114A55;stroke-width:30;stroke-miterlimit:10;}
</style>
<path class="st0" d="M256,41c12.8,0,24.6,7.2,31.1,19l194.8,353.2c6.6,11.9,6.6,26.6,0.2,38.5c-6.4,11.9-18.4,19.3-31.3,19.3H61.2
	c-12.9,0-24.9-7.4-31.3-19.3c-6.4-11.9-6.3-26.7,0.2-38.5L224.9,60C231.4,48.2,243.2,41,256,41z M256,169.2
	c-14.1-1.1-18.3,8.7-18.3,18.3V295c0,8.3,6.3,16.1,18.3,16.1c12,0,17.5-3.5,17.5-16.7V186.9C273.5,176.9,268,170.2,256,169.2z
	 M280.9,378.9c-0.9-18.8-7.7-22.6-23.6-22.6s-23.8,6.3-23.8,23.3s7.9,24.7,23.8,24.7C281.1,404.3,281.5,392.3,280.9,378.9z"/>
<polygon class="st1" points="248.1,184.1 248.1,288.5 248.1,301.2 248.1,296.3 262.6,295.6 262.6,177.9 248.1,177.9 "/>
<path class="st1" d="M249.9,381.7"/>
<polyline class="st1" points="237.7,360.1 244.3,386.1 273.5,378.4 268.3,366.6 260.8,363.4 256,375.1 253.7,381.7 262.6,389.9 
	273.5,381.7 "/>
</svg>
