<svg width="15" height="17" viewBox="0 0 15 17" fill="none" xmlns="http://www.w3.org/2000/svg">
<path d="M7.5 8.25C8.63664 8.25 9.72673 7.8154 10.5305 7.04181C11.3342 6.26823 11.7857 5.21902 11.7857 4.125C11.7857 3.03098 11.3342 1.98177 10.5305 1.20818C9.72673 0.434597 8.63664 0 7.5 0C6.36336 0 5.27327 0.434597 4.46954 1.20818C3.66581 1.98177 3.21429 3.03098 3.21429 4.125C3.21429 5.21902 3.66581 6.26823 4.46954 7.04181C5.27327 7.8154 6.36336 8.25 7.5 8.25ZM5.96987 9.79687C2.67188 9.79687 0 12.3686 0 15.5429C0 16.0714 0.445313 16.5 0.99442 16.5H14.0056C14.5547 16.5 15 16.0714 15 15.5429C15 12.3686 12.3281 9.79687 9.03013 9.79687H5.96987Z" fill="#565656"/>
</svg>
